<svg width="324" height="83" viewBox="0 0 324 83" fill="none" xmlns="http://www.w3.org/2000/svg">
<g filter="url(#filter0_d)">
<g clip-path="url(#clip0)">
<rect x="10" y="8" width="304" height="63" rx="5" fill="#F3FFFB"/>
<path d="M85.404 34.2C86.272 34.2 87.0233 34.3447 87.658 34.634C88.302 34.9233 88.7967 35.334 89.142 35.866C89.4873 36.398 89.66 37.028 89.66 37.756C89.66 38.4747 89.4873 39.1047 89.142 39.646C88.7967 40.178 88.302 40.5887 87.658 40.878C87.0233 41.158 86.272 41.298 85.404 41.298H83.43V44H81.162V34.2H85.404ZM85.278 39.45C85.9593 39.45 86.4773 39.3053 86.832 39.016C87.1867 38.7173 87.364 38.2973 87.364 37.756C87.364 37.2053 87.1867 36.7853 86.832 36.496C86.4773 36.1973 85.9593 36.048 85.278 36.048H83.43V39.45H85.278ZM94.0948 36.356C95.2615 36.356 96.1575 36.636 96.7828 37.196C97.4082 37.7467 97.7208 38.582 97.7208 39.702V44H95.6768V43.062C95.2662 43.762 94.5008 44.112 93.3808 44.112C92.8022 44.112 92.2982 44.014 91.8688 43.818C91.4488 43.622 91.1268 43.3513 90.9028 43.006C90.6788 42.6607 90.5668 42.2687 90.5668 41.83C90.5668 41.13 90.8282 40.5793 91.3508 40.178C91.8828 39.7767 92.6995 39.576 93.8008 39.576H95.5368C95.5368 39.1 95.3922 38.736 95.1028 38.484C94.8135 38.2227 94.3795 38.092 93.8008 38.092C93.3995 38.092 93.0028 38.1573 92.6108 38.288C92.2282 38.4093 91.9015 38.5773 91.6308 38.792L90.8468 37.266C91.2575 36.9767 91.7475 36.7527 92.3168 36.594C92.8955 36.4353 93.4882 36.356 94.0948 36.356ZM93.9268 42.642C94.3002 42.642 94.6315 42.558 94.9208 42.39C95.2102 42.2127 95.4155 41.956 95.5368 41.62V40.85H94.0388C93.1428 40.85 92.6948 41.144 92.6948 41.732C92.6948 42.012 92.8022 42.236 93.0168 42.404C93.2408 42.5627 93.5442 42.642 93.9268 42.642ZM107.037 36.468L103.635 44.462C103.289 45.33 102.86 45.9413 102.347 46.296C101.843 46.6507 101.231 46.828 100.513 46.828C100.121 46.828 99.7334 46.7673 99.3507 46.646C98.9681 46.5247 98.6554 46.3567 98.4127 46.142L99.2107 44.588C99.3787 44.7373 99.5701 44.854 99.7847 44.938C100.009 45.022 100.228 45.064 100.443 45.064C100.741 45.064 100.984 44.9893 101.171 44.84C101.357 44.7 101.525 44.462 101.675 44.126L101.703 44.056L98.4407 36.468H100.695L102.809 41.578L104.937 36.468H107.037ZM117.574 36.356C118.517 36.356 119.263 36.636 119.814 37.196C120.374 37.7467 120.654 38.5773 120.654 39.688V44H118.47V40.024C118.47 39.4267 118.344 38.9833 118.092 38.694C117.849 38.3953 117.499 38.246 117.042 38.246C116.529 38.246 116.123 38.414 115.824 38.75C115.525 39.0767 115.376 39.5667 115.376 40.22V44H113.192V40.024C113.192 38.8387 112.716 38.246 111.764 38.246C111.26 38.246 110.859 38.414 110.56 38.75C110.261 39.0767 110.112 39.5667 110.112 40.22V44H107.928V36.468H110.014V37.336C110.294 37.0187 110.635 36.776 111.036 36.608C111.447 36.44 111.895 36.356 112.38 36.356C112.912 36.356 113.393 36.4633 113.822 36.678C114.251 36.8833 114.597 37.1867 114.858 37.588C115.166 37.196 115.553 36.8927 116.02 36.678C116.496 36.4633 117.014 36.356 117.574 36.356ZM130.072 40.262C130.072 40.29 130.058 40.486 130.03 40.85H124.332C124.434 41.3167 124.677 41.6853 125.06 41.956C125.442 42.2267 125.918 42.362 126.488 42.362C126.88 42.362 127.225 42.306 127.524 42.194C127.832 42.0727 128.116 41.886 128.378 41.634L129.54 42.894C128.83 43.706 127.794 44.112 126.432 44.112C125.582 44.112 124.831 43.9487 124.178 43.622C123.524 43.286 123.02 42.824 122.666 42.236C122.311 41.648 122.134 40.9807 122.134 40.234C122.134 39.4967 122.306 38.834 122.652 38.246C123.006 37.6487 123.487 37.1867 124.094 36.86C124.71 36.524 125.396 36.356 126.152 36.356C126.889 36.356 127.556 36.5147 128.154 36.832C128.751 37.1493 129.218 37.6067 129.554 38.204C129.899 38.792 130.072 39.478 130.072 40.262ZM126.166 38.008C125.671 38.008 125.256 38.148 124.92 38.428C124.584 38.708 124.378 39.0907 124.304 39.576H128.014C127.939 39.1 127.734 38.722 127.398 38.442C127.062 38.1527 126.651 38.008 126.166 38.008ZM136.104 36.356C137.037 36.356 137.788 36.636 138.358 37.196C138.936 37.756 139.226 38.5867 139.226 39.688V44H137.042V40.024C137.042 39.4267 136.911 38.9833 136.65 38.694C136.388 38.3953 136.01 38.246 135.516 38.246C134.965 38.246 134.526 38.4187 134.2 38.764C133.873 39.1 133.71 39.604 133.71 40.276V44H131.526V36.468H133.612V37.35C133.901 37.0327 134.26 36.79 134.69 36.622C135.119 36.4447 135.59 36.356 136.104 36.356ZM146.063 43.636C145.849 43.7947 145.583 43.916 145.265 44C144.957 44.0747 144.631 44.112 144.285 44.112C143.389 44.112 142.694 43.8833 142.199 43.426C141.714 42.9687 141.471 42.2967 141.471 41.41V38.316H140.309V36.636H141.471V34.802H143.655V36.636H145.531V38.316H143.655V41.382C143.655 41.6993 143.735 41.9467 143.893 42.124C144.061 42.292 144.295 42.376 144.593 42.376C144.939 42.376 145.233 42.2827 145.475 42.096L146.063 43.636ZM151.254 36.468H153.438V44H151.254V36.468ZM152.346 35.418C151.945 35.418 151.618 35.3013 151.366 35.068C151.114 34.8347 150.988 34.5453 150.988 34.2C150.988 33.8547 151.114 33.5653 151.366 33.332C151.618 33.0987 151.945 32.982 152.346 32.982C152.747 32.982 153.074 33.094 153.326 33.318C153.578 33.542 153.704 33.822 153.704 34.158C153.704 34.522 153.578 34.8253 153.326 35.068C153.074 35.3013 152.747 35.418 152.346 35.418ZM157.999 44.112C157.374 44.112 156.762 44.0373 156.165 43.888C155.568 43.7293 155.092 43.5333 154.737 43.3L155.465 41.732C155.801 41.9467 156.207 42.124 156.683 42.264C157.159 42.3947 157.626 42.46 158.083 42.46C159.007 42.46 159.469 42.2313 159.469 41.774C159.469 41.5593 159.343 41.4053 159.091 41.312C158.839 41.2187 158.452 41.1393 157.929 41.074C157.313 40.9807 156.804 40.8733 156.403 40.752C156.002 40.6307 155.652 40.416 155.353 40.108C155.064 39.8 154.919 39.3613 154.919 38.792C154.919 38.316 155.054 37.896 155.325 37.532C155.605 37.1587 156.006 36.8693 156.529 36.664C157.061 36.4587 157.686 36.356 158.405 36.356C158.937 36.356 159.464 36.4167 159.987 36.538C160.519 36.65 160.958 36.8087 161.303 37.014L160.575 38.568C159.912 38.1947 159.189 38.008 158.405 38.008C157.938 38.008 157.588 38.0733 157.355 38.204C157.122 38.3347 157.005 38.5027 157.005 38.708C157.005 38.9413 157.131 39.1047 157.383 39.198C157.635 39.2913 158.036 39.38 158.587 39.464C159.203 39.5667 159.707 39.6787 160.099 39.8C160.491 39.912 160.832 40.122 161.121 40.43C161.41 40.738 161.555 41.1673 161.555 41.718C161.555 42.1847 161.415 42.6 161.135 42.964C160.855 43.328 160.444 43.6127 159.903 43.818C159.371 44.014 158.736 44.112 157.999 44.112ZM169.401 44.112C168.776 44.112 168.165 44.0373 167.567 43.888C166.97 43.7293 166.494 43.5333 166.139 43.3L166.867 41.732C167.203 41.9467 167.609 42.124 168.085 42.264C168.561 42.3947 169.028 42.46 169.485 42.46C170.409 42.46 170.871 42.2313 170.871 41.774C170.871 41.5593 170.745 41.4053 170.493 41.312C170.241 41.2187 169.854 41.1393 169.331 41.074C168.715 40.9807 168.207 40.8733 167.805 40.752C167.404 40.6307 167.054 40.416 166.755 40.108C166.466 39.8 166.321 39.3613 166.321 38.792C166.321 38.316 166.457 37.896 166.727 37.532C167.007 37.1587 167.409 36.8693 167.931 36.664C168.463 36.4587 169.089 36.356 169.807 36.356C170.339 36.356 170.867 36.4167 171.389 36.538C171.921 36.65 172.36 36.8087 172.705 37.014L171.977 38.568C171.315 38.1947 170.591 38.008 169.807 38.008C169.341 38.008 168.991 38.0733 168.757 38.204C168.524 38.3347 168.407 38.5027 168.407 38.708C168.407 38.9413 168.533 39.1047 168.785 39.198C169.037 39.2913 169.439 39.38 169.989 39.464C170.605 39.5667 171.109 39.6787 171.501 39.8C171.893 39.912 172.234 40.122 172.523 40.43C172.813 40.738 172.957 41.1673 172.957 41.718C172.957 42.1847 172.817 42.6 172.537 42.964C172.257 43.328 171.847 43.6127 171.305 43.818C170.773 44.014 170.139 44.112 169.401 44.112ZM181.893 36.468V44H179.821V43.104C179.532 43.4307 179.186 43.6827 178.785 43.86C178.384 44.028 177.95 44.112 177.483 44.112C176.494 44.112 175.71 43.8273 175.131 43.258C174.552 42.6887 174.263 41.844 174.263 40.724V36.468H176.447V40.402C176.447 41.6153 176.956 42.222 177.973 42.222C178.496 42.222 178.916 42.054 179.233 41.718C179.55 41.3727 179.709 40.864 179.709 40.192V36.468H181.893ZM187.556 44.112C186.754 44.112 186.03 43.9487 185.386 43.622C184.752 43.286 184.252 42.824 183.888 42.236C183.534 41.648 183.356 40.9807 183.356 40.234C183.356 39.4873 183.534 38.82 183.888 38.232C184.252 37.644 184.752 37.1867 185.386 36.86C186.03 36.524 186.754 36.356 187.556 36.356C188.35 36.356 189.04 36.524 189.628 36.86C190.226 37.1867 190.66 37.658 190.93 38.274L189.236 39.184C188.844 38.4933 188.28 38.148 187.542 38.148C186.973 38.148 186.502 38.3347 186.128 38.708C185.755 39.0813 185.568 39.59 185.568 40.234C185.568 40.878 185.755 41.3867 186.128 41.76C186.502 42.1333 186.973 42.32 187.542 42.32C188.289 42.32 188.854 41.9747 189.236 41.284L190.93 42.208C190.66 42.8053 190.226 43.272 189.628 43.608C189.04 43.944 188.35 44.112 187.556 44.112ZM195.732 44.112C194.929 44.112 194.206 43.9487 193.562 43.622C192.927 43.286 192.428 42.824 192.064 42.236C191.709 41.648 191.532 40.9807 191.532 40.234C191.532 39.4873 191.709 38.82 192.064 38.232C192.428 37.644 192.927 37.1867 193.562 36.86C194.206 36.524 194.929 36.356 195.732 36.356C196.525 36.356 197.216 36.524 197.804 36.86C198.401 37.1867 198.835 37.658 199.106 38.274L197.412 39.184C197.02 38.4933 196.455 38.148 195.718 38.148C195.149 38.148 194.677 38.3347 194.304 38.708C193.931 39.0813 193.744 39.59 193.744 40.234C193.744 40.878 193.931 41.3867 194.304 41.76C194.677 42.1333 195.149 42.32 195.718 42.32C196.465 42.32 197.029 41.9747 197.412 41.284L199.106 42.208C198.835 42.8053 198.401 43.272 197.804 43.608C197.216 43.944 196.525 44.112 195.732 44.112ZM207.646 40.262C207.646 40.29 207.632 40.486 207.604 40.85H201.906C202.008 41.3167 202.251 41.6853 202.634 41.956C203.016 42.2267 203.492 42.362 204.062 42.362C204.454 42.362 204.799 42.306 205.098 42.194C205.406 42.0727 205.69 41.886 205.952 41.634L207.114 42.894C206.404 43.706 205.368 44.112 204.006 44.112C203.156 44.112 202.405 43.9487 201.752 43.622C201.098 43.286 200.594 42.824 200.24 42.236C199.885 41.648 199.708 40.9807 199.708 40.234C199.708 39.4967 199.88 38.834 200.226 38.246C200.58 37.6487 201.061 37.1867 201.668 36.86C202.284 36.524 202.97 36.356 203.726 36.356C204.463 36.356 205.13 36.5147 205.728 36.832C206.325 37.1493 206.792 37.6067 207.128 38.204C207.473 38.792 207.646 39.478 207.646 40.262ZM203.74 38.008C203.245 38.008 202.83 38.148 202.494 38.428C202.158 38.708 201.952 39.0907 201.878 39.576H205.588C205.513 39.1 205.308 38.722 204.972 38.442C204.636 38.1527 204.225 38.008 203.74 38.008ZM211.634 44.112C211.008 44.112 210.397 44.0373 209.8 43.888C209.202 43.7293 208.726 43.5333 208.372 43.3L209.1 41.732C209.436 41.9467 209.842 42.124 210.318 42.264C210.794 42.3947 211.26 42.46 211.718 42.46C212.642 42.46 213.104 42.2313 213.104 41.774C213.104 41.5593 212.978 41.4053 212.726 41.312C212.474 41.2187 212.086 41.1393 211.564 41.074C210.948 40.9807 210.439 40.8733 210.038 40.752C209.636 40.6307 209.286 40.416 208.988 40.108C208.698 39.8 208.554 39.3613 208.554 38.792C208.554 38.316 208.689 37.896 208.96 37.532C209.24 37.1587 209.641 36.8693 210.164 36.664C210.696 36.4587 211.321 36.356 212.04 36.356C212.572 36.356 213.099 36.4167 213.622 36.538C214.154 36.65 214.592 36.8087 214.938 37.014L214.21 38.568C213.547 38.1947 212.824 38.008 212.04 38.008C211.573 38.008 211.223 38.0733 210.99 38.204C210.756 38.3347 210.64 38.5027 210.64 38.708C210.64 38.9413 210.766 39.1047 211.018 39.198C211.27 39.2913 211.671 39.38 212.222 39.464C212.838 39.5667 213.342 39.6787 213.734 39.8C214.126 39.912 214.466 40.122 214.756 40.43C215.045 40.738 215.19 41.1673 215.19 41.718C215.19 42.1847 215.05 42.6 214.77 42.964C214.49 43.328 214.079 43.6127 213.538 43.818C213.006 44.014 212.371 44.112 211.634 44.112ZM219.071 44.112C218.446 44.112 217.835 44.0373 217.237 43.888C216.64 43.7293 216.164 43.5333 215.809 43.3L216.537 41.732C216.873 41.9467 217.279 42.124 217.755 42.264C218.231 42.3947 218.698 42.46 219.155 42.46C220.079 42.46 220.541 42.2313 220.541 41.774C220.541 41.5593 220.415 41.4053 220.163 41.312C219.911 41.2187 219.524 41.1393 219.001 41.074C218.385 40.9807 217.877 40.8733 217.475 40.752C217.074 40.6307 216.724 40.416 216.425 40.108C216.136 39.8 215.991 39.3613 215.991 38.792C215.991 38.316 216.127 37.896 216.397 37.532C216.677 37.1587 217.079 36.8693 217.601 36.664C218.133 36.4587 218.759 36.356 219.477 36.356C220.009 36.356 220.537 36.4167 221.059 36.538C221.591 36.65 222.03 36.8087 222.375 37.014L221.647 38.568C220.985 38.1947 220.261 38.008 219.477 38.008C219.011 38.008 218.661 38.0733 218.427 38.204C218.194 38.3347 218.077 38.5027 218.077 38.708C218.077 38.9413 218.203 39.1047 218.455 39.198C218.707 39.2913 219.109 39.38 219.659 39.464C220.275 39.5667 220.779 39.6787 221.171 39.8C221.563 39.912 221.904 40.122 222.193 40.43C222.483 40.738 222.627 41.1673 222.627 41.718C222.627 42.1847 222.487 42.6 222.207 42.964C221.927 43.328 221.517 43.6127 220.975 43.818C220.443 44.014 219.809 44.112 219.071 44.112ZM226.369 36.636H228.301V38.316H226.425V44H224.241V38.316H223.079V36.636H224.241V36.3C224.241 35.4413 224.493 34.76 224.997 34.256C225.51 33.752 226.229 33.5 227.153 33.5C227.479 33.5 227.787 33.5373 228.077 33.612C228.375 33.6773 228.623 33.7753 228.819 33.906L228.245 35.488C227.993 35.3107 227.699 35.222 227.363 35.222C226.7 35.222 226.369 35.586 226.369 36.314V36.636ZM236.977 36.468V44H234.905V43.104C234.616 43.4307 234.27 43.6827 233.869 43.86C233.468 44.028 233.034 44.112 232.567 44.112C231.578 44.112 230.794 43.8273 230.215 43.258C229.636 42.6887 229.347 41.844 229.347 40.724V36.468H231.531V40.402C231.531 41.6153 232.04 42.222 233.057 42.222C233.58 42.222 234 42.054 234.317 41.718C234.634 41.3727 234.793 40.864 234.793 40.192V36.468H236.977ZM239 33.612H241.184V44H239V33.612Z" fill="#333333"/>
<path fill-rule="evenodd" clip-rule="evenodd" d="M35.3385 -1.68257C31.6777 -4.77248 26.3223 -4.77248 22.6615 -1.68257L18.7384 1.62871C18.2198 2.06648 17.5779 2.33234 16.9016 2.38953L11.7861 2.82215C7.01266 3.22585 3.22585 7.01266 2.82215 11.7861L2.38953 16.9016C2.33234 17.5779 2.06648 18.2197 1.62871 18.7384L-1.68257 22.6615C-4.77248 26.3223 -4.77248 31.6777 -1.68257 35.3385L1.62871 39.2616C2.06648 39.7803 2.33234 40.4221 2.38953 41.0984L2.82215 46.2139C3.22585 50.9873 7.01266 54.7742 11.7861 55.1779L16.9016 55.6105C17.5779 55.6677 18.2197 55.9335 18.7384 56.3713L22.6615 59.6826C26.3223 62.7725 31.6777 62.7725 35.3385 59.6826L39.2616 56.3713C39.7803 55.9335 40.4221 55.6677 41.0984 55.6105L46.2139 55.1779C50.9873 54.7742 54.7742 50.9873 55.1779 46.2139L55.6105 41.0984C55.6677 40.4221 55.9335 39.7803 56.3713 39.2616L59.6826 35.3385C62.7725 31.6777 62.7725 26.3223 59.6826 22.6615L56.3713 18.7384C55.9335 18.2198 55.6677 17.5779 55.6105 16.9016L55.1779 11.7861C54.7742 7.01266 50.9873 3.22585 46.2139 2.82215L41.0984 2.38953C40.4221 2.33234 39.7803 2.06648 39.2616 1.62871L35.3385 -1.68257ZM44.1873 22.8956C45.3386 21.7443 45.3386 19.8776 44.1873 18.7263C43.036 17.575 41.1693 17.575 40.018 18.7263L25.7242 33.0201L17.9818 25.2777C16.8305 24.1264 14.9638 24.1264 13.8125 25.2777C12.6612 26.429 12.6612 28.2957 13.8125 29.447L23.6396 39.274C24.7909 40.4254 26.6575 40.4254 27.8089 39.274L44.1873 22.8956Z" fill="#E2F9F1"/>
</g>
</g>
<defs>
<filter id="filter0_d" x="0" y="0" width="324" height="83" filterUnits="userSpaceOnUse" color-interpolation-filters="sRGB">
<feFlood flood-opacity="0" result="BackgroundImageFix"/>
<feColorMatrix in="SourceAlpha" type="matrix" values="0 0 0 0 0 0 0 0 0 0 0 0 0 0 0 0 0 0 127 0"/>
<feOffset dy="2"/>
<feGaussianBlur stdDeviation="5"/>
<feColorMatrix type="matrix" values="0 0 0 0 0.210139 0 0 0 0 0.309967 0 0 0 0 0.566667 0 0 0 0.3 0"/>
<feBlend mode="normal" in2="BackgroundImageFix" result="effect1_dropShadow"/>
<feBlend mode="normal" in="SourceGraphic" in2="effect1_dropShadow" result="shape"/>
</filter>
<clipPath id="clip0">
<rect x="10" y="8" width="304" height="63" rx="5" fill="white"/>
</clipPath>
</defs>
</svg>
